<svg t="1594819322062" class="icon" viewBox="0 0 1024 1024" version="1.1" xmlns="http://www.w3.org/2000/svg" p-id="8001" width="200" height="200"><path d="M601.6 1024 102.4 1024c-19.2 0-32-12.8-32-32l0-960C70.4 12.8 83.2 0 102.4 0l825.6 0c19.2 0 32 12.8 32 32l0 640c0 19.2-12.8 32-32 32s-32-12.8-32-32L896 64 134.4 64l0 896 473.6 0c19.2 0 32 12.8 32 32S620.8 1024 601.6 1024z" p-id="8002"></path><path d="M729.6 275.2 294.4 275.2c-19.2 0-32-12.8-32-32s12.8-32 32-32l428.8 0c19.2 0 32 12.8 32 32S742.4 275.2 729.6 275.2z" p-id="8003"></path><path d="M729.6 492.8 294.4 492.8c-19.2 0-32-12.8-32-32s12.8-32 32-32l428.8 0c19.2 0 32 12.8 32 32S742.4 492.8 729.6 492.8z" p-id="8004"></path><path d="M601.6 1024c-6.4 0-6.4 0-12.8 0-12.8-6.4-19.2-19.2-19.2-32l0-320c0-19.2 12.8-32 32-32l320 0c12.8 0 25.6 6.4 32 19.2 6.4 12.8 0 25.6-6.4 32l-320 320C620.8 1017.6 614.4 1024 601.6 1024zM633.6 704l0 211.2 211.2-211.2L633.6 704z" p-id="8005"></path></svg>